<!-- icon666.com - MILLIONS OF FREE VECTOR ICONS --><svg version="1.1" id="Capa_1" xmlns="http://www.w3.org/2000/svg" xmlns:xlink="http://www.w3.org/1999/xlink" x="0px" y="0px" viewBox="0 0 512 512" style="enable-background:new 0 0 512 512;" xml:space="preserve"><path style="fill:#FF8087;" d="M337.326,332.753l-41.243-68.737h-80.161l-41.243,68.737c-4.485,7.475-6.854,16.028-6.854,24.746 v90.888c0,4.427,3.589,8.016,8.016,8.016h160.323c4.427,0,8.016-3.589,8.016-8.016v-90.888 C344.18,348.781,341.811,340.228,337.326,332.753z"></path><polygon style="fill:#E6646E;" points="191.874,456.402 320.132,456.402 320.132,304.096 296.084,264.015 215.922,264.015 191.874,304.096 "></polygon><path style="fill:#EDEBED;" d="M321.688,456.402h-131.37l-7.238,43.43c-0.407,2.443,1.477,4.667,3.954,4.667h137.939 c2.477,0,4.361-2.224,3.954-4.667L321.688,456.402z"></path><path style="fill:#DBD9DC;" d="M261.212,11.948c-2.916-2.656-7.503-2.656-10.419,0c-22.134,20.162-34.871,48.794-34.871,78.944 v365.511h80.161V90.891C296.084,60.741,283.347,32.11,261.212,11.948z"></path><path style="fill:#C9C6CA;" d="M272.035,23.6c-3.255-4.003-6.705-7.866-10.545-11.397c-2.907-2.674-7.776-2.915-10.697-0.255 c-22.134,20.162-34.871,48.793-34.871,78.944v365.511h32.065V90.891C247.987,66.124,256.697,42.464,272.035,23.6z"></path><path style="fill:#FF8087;" d="M250.794,11.947c-22.134,20.162-34.871,48.793-34.871,78.944v12.801h80.161V90.891 c0-30.151-12.737-58.782-34.871-78.944C258.296,9.291,253.71,9.291,250.794,11.947z"></path><path style="fill:#E6646E;" d="M250.794,11.947c-22.134,20.162-34.871,48.793-34.871,78.944v12.801h32.065V90.891 c0-24.768,8.71-48.427,24.048-67.292l0,0c-3.334-4.1-6.871-8.052-10.823-11.652C258.296,9.291,253.71,9.291,250.794,11.947z"></path><rect x="215.923" y="103.689" style="fill:#B7B2B8;" width="32.06" height="32.06"></rect><rect x="247.983" y="103.689" style="fill:#C9C6CA;" width="48.1" height="32.06"></rect><rect x="215.923" y="408.309" style="fill:#B7B2B8;" width="32.06" height="48.1"></rect><rect x="247.983" y="408.309" style="fill:#C9C6CA;" width="48.1" height="48.1"></rect><path style="fill:#DBD9DC;" d="M190.318,456.402l-7.238,43.43c-0.407,2.443,1.477,4.667,3.954,4.667h60.953l8.016-48.097H190.318z"></path><path d="M343.757,328.894l-40.174-66.956V90.892c0-34.911-15.635-67.441-42.896-89.249c-2.739-2.191-6.631-2.191-9.37,0 c-27.261,21.808-42.896,54.338-42.896,89.249v171.046l-40.174,66.957c-5.183,8.639-7.923,18.53-7.923,28.604v90.888 c0,8.556,6.96,15.516,15.516,15.516h5.623l-5.783,34.696c-0.557,3.344,0.379,6.745,2.57,9.331c2.191,2.586,5.392,4.07,8.781,4.07 h137.938c3.39,0,6.59-1.483,8.781-4.07c2.191-2.586,3.127-5.987,2.57-9.33l-5.783-34.697h5.623c8.556,0,15.516-6.96,15.516-15.516 v-90.888C351.68,347.424,348.941,337.533,343.757,328.894z M273.698,463.902l5.516,33.097h-46.422l5.516-33.097H273.698z M223.422,448.902v-33.097h65.161v33.097H223.422z M256.003,17.343c20.78,18.808,32.581,45.28,32.581,73.549v5.301h-0.516 c-4.142,0-7.5,3.358-7.5,7.5s3.358,7.5,7.5,7.5h0.516v17.065h-65.161v-17.065h32.58c4.142,0,7.5-3.358,7.5-7.5s-3.358-7.5-7.5-7.5 h-32.581v-5.301C223.422,62.623,235.223,36.15,256.003,17.343z M175.326,448.386v-90.887c0-7.356,2-14.579,5.785-20.887 l27.312-45.519v69.116c0,4.142,3.358,7.5,7.5,7.5s7.5-3.358,7.5-7.5V143.257h65.161v257.548h-65.161v-8.535 c0-4.142-3.358-7.5-7.5-7.5s-7.5,3.358-7.5,7.5v56.631h-32.581C175.557,448.902,175.326,448.671,175.326,448.386z M196.672,463.902 h26.429l-5.516,33.097h-26.429L196.672,463.902z M320.85,496.999h-26.429l-5.516-33.097h26.429L320.85,496.999z M336.68,448.386 c0,0.285-0.231,0.516-0.516,0.516h-32.581v-157.81l27.312,45.519c3.785,6.309,5.785,13.531,5.785,20.887L336.68,448.386 L336.68,448.386z"></path></svg>